<?xml version="1.0" standalone="no"?>
<!DOCTYPE svg PUBLIC "-//W3C//DTD SVG 20010904//EN"
 "http://www.w3.org/TR/2001/REC-SVG-20010904/DTD/svg10.dtd">
<svg version="1.0" xmlns="http://www.w3.org/2000/svg"
 width="16.000000pt" height="16.000000pt" viewBox="0 0 16.000000 16.000000"
 preserveAspectRatio="xMidYMid meet">
<metadata>
Created by potrace 1.11, written by Peter Selinger 2001-2013
</metadata>
<g transform="translate(0.000000,16.000000) scale(0.004000,-0.004000)"
fill="#000000" stroke="none">
<path d="M1003 3750 c-127 -18 -204 -153 -206 -364 0 -83 8 -192 19 -249 2
-12 7 -38 10 -57 12 -66 63 -266 88 -338 13 -40 22 -72 19 -72 -3 0 0 -7 7
-15 7 -8 9 -15 5 -15 -4 0 -2 -7 5 -15 7 -8 9 -15 5 -15 -4 0 -2 -6 4 -13 6
-8 8 -17 5 -20 -3 -3 4 -21 17 -39 13 -18 17 -28 9 -22 -11 9 -40 6 -120 -12
-58 -13 -114 -26 -125 -28 -11 -3 -45 -12 -75 -22 -65 -20 -81 -25 -97 -26 -7
-1 -13 -5 -13 -10 0 -4 -3 -7 -7 -6 -13 3 -108 -31 -173 -63 -33 -16 -63 -29
-66 -29 -17 0 -165 -105 -200 -142 -47 -49 -87 -115 -79 -129 4 -5 2 -9 -3 -9
-14 0 -6 -89 12 -131 22 -52 96 -130 169 -178 35 -22 68 -41 74 -41 6 0 13 -3
15 -7 2 -7 71 -44 88 -48 3 -1 22 -9 43 -18 47 -20 211 -77 238 -82 11 -2 54
-14 97 -25 103 -29 97 -28 176 -45 38 -8 85 -17 105 -20 20 -3 54 -8 76 -11
22 -4 55 -7 73 -7 17 -1 32 -4 32 -7 0 -4 12 -7 28 -7 15 -1 52 -4 82 -7 50
-6 108 -12 199 -19 29 -3 40 -13 82 -73 27 -38 53 -75 59 -81 6 -7 8 -13 5
-13 -3 0 3 -8 13 -18 27 -29 52 -62 52 -68 0 -3 6 -11 13 -18 6 -7 21 -25 32
-40 11 -16 34 -44 52 -64 l31 -36 -41 -51 c-23 -27 -46 -55 -52 -61 -5 -6 -30
-36 -55 -65 -73 -87 -249 -260 -331 -326 -180 -142 -328 -200 -422 -164 -57
22 -104 98 -115 186 -10 87 -4 242 13 305 2 8 6 33 10 55 3 22 10 58 16 80 6
22 13 47 14 55 16 68 123 393 140 419 7 13 -27 31 -58 31 -21 0 -27 -10 -53
-87 -16 -49 -29 -90 -30 -93 0 -3 -3 -12 -6 -20 -22 -63 -70 -251 -82 -320 -3
-19 -8 -45 -10 -57 -18 -91 -26 -264 -15 -328 4 -22 9 -54 12 -71 14 -90 82
-181 154 -205 50 -17 127 -14 198 7 27 9 193 91 208 104 7 6 37 29 67 52 132
97 288 248 441 429 52 60 101 114 82 89 -7 -9 -13 -25 -13 -35 0 -35 242 -286
395 -410 303 -244 538 -285 640 -110 34 56 62 194 59 288 -2 66 -5 101 -20
222 -15 119 -121 493 -150 525 -11 13 -11 16 4 16 18 1 79 11 122 19 46 10 95
18 108 18 6 0 12 3 12 7 0 4 6 7 13 8 6 1 23 3 37 5 14 1 30 5 35 8 6 4 24 9
40 13 50 11 141 38 175 51 3 1 20 6 38 10 18 4 35 12 38 16 3 5 12 9 19 9 8 0
40 12 72 26 32 15 63 28 68 29 36 9 167 98 219 149 70 68 98 119 100 181 1 44
-22 125 -36 125 -4 0 -8 6 -8 13 0 17 -83 96 -141 135 -59 39 -164 92 -249
125 -36 13 -74 28 -85 32 -11 5 -26 10 -32 12 -7 1 -19 5 -25 6 -7 2 -20 7
-28 10 -13 5 -72 21 -120 33 -8 2 -44 10 -80 19 -65 16 -81 19 -155 31 -22 3
-47 9 -55 13 -8 4 -31 6 -52 6 -32 0 -35 2 -26 18 5 10 11 26 13 35 3 9 16 55
30 102 13 47 27 98 30 114 3 16 10 36 14 45 5 9 12 34 16 56 5 22 9 45 10 50
6 28 26 123 30 144 36 191 19 405 -40 506 -28 49 -85 91 -140 103 -43 9 -59 8
-140 -8 -46 -10 -204 -82 -215 -99 -3 -4 -25 -20 -50 -34 -25 -14 -56 -37 -70
-49 -14 -13 -55 -48 -90 -78 -92 -78 -271 -262 -321 -329 -13 -17 -29 -31 -38
-31 -8 0 -11 3 -8 6 8 8 -13 36 -103 134 -97 108 -117 128 -195 200 -104 96
-135 121 -241 197 -106 77 -282 136 -371 123z m117 -41 c174 -56 421 -267 685
-588 l69 -83 18 22 c10 13 21 21 23 18 3 -2 -3 -13 -13 -24 -10 -10 -38 -46
-62 -79 -25 -33 -47 -62 -50 -65 -8 -7 -133 -178 -145 -198 -39 -65 -89 -131
-94 -124 -3 5 -26 8 -51 7 -86 -6 -210 -19 -281 -31 -46 -7 -113 -16 -126 -17
-7 0 -13 -2 -13 -3 0 -12 43 -83 48 -80 4 2 34 7 67 11 33 4 74 8 90 10 17 2
59 6 95 9 36 3 75 8 87 10 34 7 37 -9 9 -51 -13 -21 -65 -109 -115 -197 l-90
-158 -62 128 c-33 71 -76 165 -94 209 -19 44 -42 98 -51 120 -10 22 -18 42
-19 45 -1 5 -44 123 -68 185 -7 17 -12 32 -12 35 -1 3 -9 28 -18 56 -10 28
-19 59 -22 70 -2 10 -11 44 -20 74 -8 30 -17 68 -20 84 -3 16 -8 32 -10 35 -2
4 -6 25 -9 47 -4 22 -9 51 -12 64 -13 62 -13 267 0 317 38 144 122 188 266
142z m1762 -26 c50 -20 93 -85 107 -166 11 -58 9 -241 -3 -297 -3 -14 -10 -47
-16 -75 -21 -111 -50 -216 -95 -351 -41 -126 -95 -264 -102 -264 -3 0 -3 7 0
15 8 19 2 22 -73 30 -36 4 -81 9 -100 11 -41 6 -138 13 -233 18 -59 3 -67 1
-62 -13 10 -26 -8 -3 -86 113 -100 146 -103 151 -111 154 -5 2 -8 10 -8 17 0
7 -4 15 -8 17 -5 2 -28 29 -51 61 -24 31 -50 57 -59 57 -12 0 -11 5 6 20 12
12 22 24 22 28 0 4 17 26 38 49 20 23 53 61 72 85 45 55 251 261 313 312 198
163 342 221 449 179z m-926 -704 c-13 -19 -12 -47 4 -59 13 -10 210 -294 210
-302 0 -2 -106 -4 -235 -4 -182 -1 -239 -5 -252 -15 -14 -12 71 126 87 141 3
3 28 37 55 75 27 39 58 82 69 97 12 14 32 40 45 57 26 35 40 43 17 10z m-406
-418 c0 -5 -7 -12 -16 -15 -14 -5 -15 -4 -4 9 14 17 20 19 20 6z m705 -73 c97
-161 171 -291 216 -375 l48 -93 19 25 c11 14 22 25 25 25 12 0 -189 -366 -279
-508 -19 -29 -34 -55 -34 -58 0 -3 -7 -13 -16 -21 -13 -14 -48 -16 -247 -14
-345 2 -352 3 -376 32 -11 13 -20 29 -21 36 0 6 -7 18 -15 27 -21 20 -234 395
-242 424 -4 17 18 64 82 180 48 86 101 176 116 200 16 24 29 45 29 48 0 3 14
25 30 49 17 24 30 49 30 56 0 7 4 8 13 2 6 -5 35 -8 62 -6 28 2 156 4 285 6
177 2 234 6 233 15 -5 24 5 11 42 -50z m159 25 c28 -1 76 -4 106 -7 30 -2 89
-8 130 -11 41 -4 77 -9 79 -11 2 -2 12 1 22 7 18 9 18 9 2 -28 -10 -21 -20
-40 -23 -43 -3 -3 -6 -12 -8 -20 -4 -19 -24 -63 -77 -172 -24 -47 -41 -88 -39
-91 3 -2 -2 -10 -11 -17 -19 -16 -13 -22 -65 75 -73 135 -148 263 -193 330
l-21 30 23 -20 c16 -14 39 -21 75 -22z m492 -49 c21 -2 51 -7 68 -10 17 -3 42
-7 56 -9 43 -5 103 -16 145 -27 22 -6 49 -11 60 -13 11 -1 29 -5 40 -8 11 -3
31 -8 45 -11 14 -3 39 -9 57 -15 17 -5 34 -7 37 -3 3 3 6 -1 6 -8 0 -7 3 -11
6 -7 9 9 198 -59 284 -103 127 -63 170 -97 217 -172 88 -139 -41 -282 -362
-400 -44 -17 -89 -32 -100 -35 -27 -6 -37 -9 -55 -16 -21 -9 -177 -45 -268
-62 -13 -2 -31 -6 -40 -9 -18 -5 -82 -16 -122 -21 -80 -9 -136 -18 -142 -21
-4 -3 -5 1 -3 8 7 17 -162 417 -192 457 -2 3 -10 -4 -19 -15 -8 -10 6 21 31
70 25 49 45 95 45 102 0 8 4 14 10 14 5 0 13 12 16 27 4 15 20 57 36 93 41 92
49 112 61 140 21 54 30 69 38 64 5 -3 25 -7 45 -10z m-1888 -11 c-1 -5 4 -24
11 -43 8 -19 15 -37 16 -40 1 -3 12 -27 24 -55 25 -54 37 -84 41 -100 2 -5 14
-27 27 -47 13 -21 20 -38 17 -38 -4 0 1 -10 12 -22 12 -13 13 -18 4 -13 -13 8
-13 7 0 -10 18 -21 49 -87 46 -95 -15 -31 -90 -188 -111 -234 -46 -101 -84
-199 -80 -207 5 -7 -40 -4 -85 6 -14 3 -42 8 -62 11 -21 3 -88 19 -150 35 -62
16 -120 31 -128 33 -8 1 -46 13 -85 26 -38 13 -73 23 -77 22 -5 -1 -8 3 -8 8
0 5 -3 9 -7 8 -19 -3 -115 42 -193 92 -95 60 -149 130 -155 202 -5 58 60 150
146 204 47 29 176 95 192 98 7 1 17 4 22 7 6 4 35 14 65 23 30 10 62 20 70 23
8 3 22 8 30 10 8 2 20 5 25 7 79 23 237 59 315 71 48 8 59 11 66 18 9 9 15 9
12 0z m1586 -540 c-9 -43 -9 -42 41 -148 58 -125 69 -150 90 -202 10 -25 24
-43 33 -43 27 0 4 -12 -30 -16 -95 -10 -177 -17 -338 -28 -52 -4 -64 0 -49 17
20 22 174 292 172 299 -2 5 1 8 6 8 4 0 23 31 42 70 19 38 35 70 37 70 1 0 0
-12 -4 -27z m-1224 -210 c57 -98 110 -186 118 -195 15 -18 9 -23 -20 -20 -3 1
-33 3 -66 6 -33 2 -65 7 -71 10 -6 4 -11 2 -11 -4 0 -6 -5 -8 -11 -5 -6 4 -27
9 -47 11 -20 2 -55 6 -77 10 -22 3 -52 6 -66 7 -29 2 -29 6 6 82 44 97 65 146
65 150 0 3 11 23 25 44 13 22 27 51 31 65 3 14 10 24 14 21 4 -3 54 -85 110
-182z m1425 -183 c3 -5 1 -10 -4 -10 -6 0 -11 5 -11 10 0 6 2 10 4 10 3 0 8
-4 11 -10z m45 -90 c0 -5 -5 -10 -11 -10 -5 0 -7 5 -4 10 3 6 8 10 11 10 2 0
4 -4 4 -10z m51 -330 c17 -58 33 -112 34 -120 28 -130 35 -162 33 -168 -1 -4
2 -23 6 -42 13 -70 13 -195 -1 -263 -29 -142 -107 -200 -233 -172 -32 7 -158
62 -170 75 -3 3 -33 24 -68 48 -75 52 -117 88 -241 212 -88 87 -134 137 -223
244 -18 22 -38 44 -44 50 -9 8 0 25 34 66 25 30 51 60 59 66 7 6 10 14 6 17
-3 4 -2 7 4 7 5 0 18 15 28 34 11 19 23 33 27 30 4 -3 8 0 8 7 0 7 11 27 25
44 13 18 21 35 18 39 -4 3 -1 6 4 6 6 0 25 22 41 48 17 28 37 48 48 49 114 6
237 15 269 18 73 8 149 16 182 19 18 1 36 5 39 9 7 7 70 -169 115 -323z m-753
267 c11 -2 -171 -272 -207 -307 -9 -8 -15 -13 -14 -11 1 2 -3 8 -8 15 -6 6
-35 45 -65 86 -31 41 -62 83 -70 93 -7 9 -10 17 -6 17 4 0 2 4 -3 8 -6 4 -27
30 -46 57 l-35 50 220 -3 c122 -1 227 -4 234 -5z"/>
<path d="M1820 2416 c-152 -43 -276 -176 -309 -334 -14 -65 -14 -143 0 -201
29 -126 127 -247 246 -304 63 -29 76 -32 169 -32 96 0 103 2 176 38 267 131
331 482 130 707 -103 116 -268 166 -412 126z"/>
</g>
</svg>
